<svg width="400" height="300" viewBox="0 0 400 300" fill="none" xmlns="http://www.w3.org/2000/svg">
  <defs>
    <linearGradient id="errorGrad1" x1="0" y1="0" x2="1" y2="1">
      <stop offset="0%" stop-color="#f97316"/>
      <stop offset="100%" stop-color="#ef4444"/>
    </linearGradient>
    <linearGradient id="errorGrad2" x1="0" y1="0" x2="1" y2="1">
      <stop offset="0%" stop-color="#f59e0b"/>
      <stop offset="100%" stop-color="#f97316"/>
    </linearGradient>
    <linearGradient id="errorGrad3" x1="0" y1="0" x2="1" y2="1">
      <stop offset="0%" stop-color="#fbbf24"/>
      <stop offset="100%" stop-color="#f59e0b"/>
    </linearGradient>
    <radialGradient id="errorRadial" cx="50%" cy="50%" r="50%">
      <stop offset="0%" stop-color="#fef3c7" stop-opacity="0.3"/>
      <stop offset="100%" stop-color="#fef3c7" stop-opacity="0"/>
    </radialGradient>
  </defs>
  <g>
    <ellipse cx="200" cy="150" rx="120" ry="80" fill="url(#errorRadial)"/>
    <path d="M200 60 L200 160" stroke="url(#errorGrad1)" stroke-width="24" stroke-linecap="round"/>
    <path d="M200 160 L200 240" stroke="url(#errorGrad2)" stroke-width="24" stroke-linecap="round"/>
    <path d="M170 110 L230 110" stroke="url(#errorGrad3)" stroke-width="12" stroke-linecap="round"/>
    <path d="M160 90 L240 90" stroke="url(#errorGrad3)" stroke-width="8" stroke-linecap="round"/>
    <path d="M150 70 L250 70" stroke="url(#errorGrad3)" stroke-width="6" stroke-linecap="round"/>
    <path d="M185 160 A25 25 0 0 1 200 210 A25 25 0 0 1 215 160" stroke="url(#errorGrad2)" stroke-width="8" fill="none"/>
    <circle cx="200" cy="150" r="90" stroke="#475569" stroke-width="1" stroke-dasharray="6 3"/>
  </g>
</svg>
